# xmcd
# 
# Track frame offsets:
#     150
#     18514
#     32378
#     53980
#     67778
#     81553
#     97388
#     113666
#     126921
#     139632
#     150525
#     162831
#     178596
#     192693
#     204077
# 
# Disc length: 2917
# 
# Revision: 0
# Processed by: cddbd v1.5.2PL0 Copyright (c) Steve Scherf et al.
# Submitted via: fre:ac v1.0.17
# 
DISCID=c90b630f
DTITLE=Various Artist - Beginner's Guide to Country CD 1
DYEAR=0
DGENRE=Country
TTITLE0=Willie Nelson - Whiskey River
TTITLE1=Dolly Parton - Coat of Many Colours
TTITLE2=Merle Haggard and Willie Nelson - Pancho and Lefty
TTITLE3=George Jones - A Good Year for the Roses
TTITLE4=Bill Monroe and his Blue Grass Boys - Blue Moon of Kentucky
TTITLE5=Maria Muldaur - My Tennessee Mountain Home
TTITLE6=Kris Kristofferson - The Silver Tongued Devil and I
TTITLE7=Tanya Tucker - Delta Dawn
TTITLE8=Freddy Fender - Wasted Days and Wasted Nights
TTITLE9=The Dillards - Somebody Touched Me
TTITLE10=Hoyt Axton - Pistol Packin' Mama
TTITLE11=Carlene Carter - Do It in a Heartbeat
TTITLE12=Johnny Paycheck - I'm the Only Hell
TTITLE13=Don Gibson - Oh Lonesome Me
TTITLE14=Eric Weissberg and Deliverance - Dueling Banjos
EXTD=Cowboys, Cowgirls and Old-timers
EXTT0=
EXTT1=
EXTT2=
EXTT3=
EXTT4=
EXTT5=
EXTT6=
EXTT7=
EXTT8=
EXTT9=
EXTT10=
EXTT11=
EXTT12=
EXTT13=
EXTT14=
PLAYORDER=
